<svg width="453" height="359" viewBox="0 0 453 359" fill="none" xmlns="http://www.w3.org/2000/svg">
<path d="M367.945 358H0V179H367.945C414.915 179 453 217.066 453 264.044V272.971C453 319.934 414.929 358.014 367.945 358.014V358Z" fill="#005560"/>
<path d="M367.945 179H0V0H367.945C414.915 0 453 38.0657 453 85.0438V93.9707C453 140.934 414.929 179.014 367.945 179.014V179Z" fill="#21CE74"/>
<path d="M246.204 100.743L175.227 249.664L191.006 257.183L261.983 108.262L246.204 100.743Z" fill="white"/>
<path d="M283.306 88.3926L200.602 261.92L216.381 269.439L299.086 95.9113L283.306 88.3926Z" fill="white"/>
<path d="M321.197 76.0777L226.695 274.355L242.475 281.874L336.976 83.5964L321.197 76.0777Z" fill="white"/>
<path d="M242.477 281.884H179.359L116.023 149.08L131.188 141.861C151.113 132.355 174.975 140.805 184.481 160.742L242.492 281.898L242.477 281.884Z" fill="white"/>
</svg>
