<svg width="297" height="87" viewBox="0 0 297 87" fill="none" xmlns="http://www.w3.org/2000/svg">
<path d="M0.750549 47.5883C0.552821 50.5272 2.77496 53.0699 5.71383 53.2676C8.65271 53.4653 11.1954 51.2432 11.3932 48.3043C11.5909 45.3654 9.36875 42.8227 6.42987 42.625C3.491 42.4273 0.948278 44.6494 0.750549 47.5883ZM185.536 71.3036L185.937 72.2199L185.536 71.3036ZM296.035 2.20476C296.067 1.65338 295.645 1.18084 295.094 1.14933L286.109 0.6357C285.557 0.60418 285.085 1.02561 285.053 1.577C285.022 2.12838 285.443 2.60092 285.994 2.63244L293.981 3.089L293.525 11.076C293.493 11.6273 293.915 12.0999 294.466 12.1314C295.017 12.1629 295.49 11.7415 295.522 11.1901L296.035 2.20476ZM6.07185 47.9463L5.54074 48.7936C13.9083 54.0386 31.235 68.9994 58.1536 78.3336L58.4812 77.3888L58.8089 76.444C32.1757 67.2088 15.2592 52.525 6.60297 47.099L6.07185 47.9463ZM58.4812 77.3888L58.1536 78.3336C85.1165 87.6831 137.928 93.2001 185.937 72.2199L185.536 71.3036L185.136 70.3873C137.678 91.1268 85.3977 85.6638 58.8089 76.444L58.4812 77.3888ZM185.536 71.3036L185.937 72.2199C199.028 66.4991 222.182 52.9876 244.165 39.0285C266.141 25.073 287.076 10.5873 295.702 2.894L295.037 2.1477L294.371 1.40139C285.883 8.97129 265.081 23.3769 243.092 37.3402C221.109 51.2999 198.071 64.7347 185.136 70.3873L185.536 71.3036Z" fill="#FBC75E"/>
</svg>
