<svg width="26" height="26" viewBox="0 0 26 26" fill="none" xmlns="http://www.w3.org/2000/svg">
<g clip-path="url(#clip0_341_689)">
<path d="M13.405 9.77999C17.4989 10.8521 21.1141 10.64 21.4797 9.30632C21.8454 7.97265 18.823 6.02242 14.7291 4.95036C10.6352 3.8783 7.01998 4.09037 6.65433 5.42403C6.28868 6.7577 9.31103 8.70792 13.405 9.77999Z" stroke="#F8F8FA" stroke-width="1.66667" stroke-linecap="round" stroke-linejoin="round"/>
<path d="M19.9343 14.9408C19.5679 16.277 15.9777 16.4929 11.8595 15.4145C7.74134 14.3361 4.74254 12.3948 5.10889 11.0586" stroke="#F8F8FA" stroke-width="1.66667" stroke-linecap="round" stroke-linejoin="round"/>
<path d="M6.65381 5.42404L3.56412 16.6932C3.19777 18.0294 6.19658 19.9707 10.3147 21.0491C14.4329 22.1275 18.0232 21.9117 18.3895 20.5755L21.4792 9.30633" stroke="#F8F8FA" stroke-width="1.66667" stroke-linecap="round" stroke-linejoin="round"/>
</g>
<defs>
<clipPath id="clip0_341_689">
<rect width="20.4337" height="20.0315" fill="white" transform="matrix(0.967381 0.253325 -0.264414 0.964409 5.28687 0.752304)"/>
</clipPath>
</defs>
</svg>
