<svg width="1432" height="366" viewBox="0 0 1432 366" fill="none" xmlns="http://www.w3.org/2000/svg">
<path d="M1431.3 262.87H1237.26C1237.05 262.87 1236.95 262.6 1237.11 262.46L1422.89 102.44C1422.94 102.4 1422.97 102.33 1422.97 102.27V0.38C1422.97 0.25 1422.87 0.15 1422.74 0.15H956.591C923.331 0.15 893.801 21.42 883.261 52.96L826.231 223.61C826.161 223.82 825.861 223.82 825.791 223.61L768.751 52.96C758.211 21.41 728.681 0.15 695.421 0.15H363.201C363.201 0.15 363.191 0.15 363.181 0.15C362.311 0.06 361.441 0 360.541 0H258.181C243.821 0 232.061 11.75 232.061 26.12C232.061 39.37 242.901 50.22 256.161 50.22H281.711V50.42C295.731 52.1 306.711 64.13 306.711 78.58V78.85C306.711 92.48 296.951 103.97 284.061 106.62C284.041 106.62 284.021 106.62 284.011 106.62H231.921C230.091 106.62 228.311 106.82 226.591 107.2C221.881 108.23 217.661 110.62 214.351 113.93C209.841 118.44 207.051 124.65 207.051 131.49C207.051 143.85 216.201 154.18 228.071 156.05C229.321 156.24 230.611 156.35 231.921 156.35H297.341C297.341 156.35 297.371 156.35 297.381 156.35C311.051 158.35 321.641 170.21 321.641 184.41V197.98C321.641 206.27 314.861 213.05 306.571 213.05H118.981C105.041 213.05 93.6406 224.45 93.6406 238.39C93.6406 249.26 100.711 258.56 110.471 261.91C112.991 262.79 115.711 263.27 118.521 263.27H285.521C285.521 263.27 285.571 263.27 285.601 263.28C296.261 266.83 303.991 276.93 303.991 288.74V289.36C303.991 301.17 296.261 311.27 285.601 314.82C285.571 314.82 285.551 314.83 285.521 314.83H223.011C220.201 314.83 217.491 315.31 214.961 316.19C205.201 319.54 198.131 328.84 198.131 339.71C198.131 353.65 209.531 365.05 223.471 365.05H281.701V365.09H566.161C566.291 365.09 566.391 364.99 566.391 364.86V263.09C566.391 262.96 566.291 262.86 566.161 262.86H402.981C402.851 262.87 402.751 262.77 402.751 262.64V222.81C402.751 222.68 402.851 222.58 402.981 222.58H512.011C512.141 222.58 512.241 222.48 512.241 222.35V134.03C512.241 133.9 512.141 133.8 512.011 133.8H402.981C402.851 133.8 402.751 133.7 402.751 133.57V102.6C402.751 102.47 402.851 102.37 402.981 102.37H611.101C611.231 102.37 611.331 102.47 611.331 102.6V364.87C611.331 365 611.431 365.1 611.561 365.1H732.171C732.301 365.1 732.401 365 732.401 364.87V220.37C732.401 220.1 732.781 220.05 732.851 220.31L774.021 362.16C774.531 363.9 776.121 365.1 777.941 365.1H874.041C875.861 365.1 877.451 363.9 877.961 362.16L919.141 220.31C919.211 220.05 919.591 220.11 919.591 220.37V364.87C919.591 365 919.691 365.1 919.821 365.1H1040.41C1040.54 365.1 1040.64 365 1040.64 364.87V102.61C1040.64 102.48 1040.74 102.38 1040.87 102.38H1279.67C1279.88 102.38 1279.98 102.65 1279.82 102.79L1088.71 266.81C1088.66 266.85 1088.63 266.92 1088.63 266.98L1088.56 364.87C1088.56 365 1088.66 365.1 1088.79 365.1H1391.08C1413.41 365.1 1431.51 347 1431.51 324.67V263.1C1431.51 262.97 1431.41 262.87 1431.28 262.87H1431.3Z" fill="url(#paint0_linear_291_6)"/>
<path d="M107.891 50.2102H178.461C192.271 50.2102 203.571 38.9102 203.571 25.1002C203.571 11.2902 192.271 -0.00976562 178.461 -0.00976562H107.891C94.0813 -0.00976562 82.7812 11.2902 82.7812 25.1002C82.7812 38.9102 94.0813 50.2102 107.891 50.2102Z" fill="url(#paint1_linear_291_6)"/>
<path d="M172.35 130.96V130.73C172.35 119.86 165.28 110.56 155.52 107.21C153 106.33 150.28 105.85 147.47 105.85H25.11C11.3 105.85 0 117.15 0 130.96C0 144.77 11.3 156.07 25.11 156.07H147.25C161.06 156.07 172.36 144.77 172.36 130.96H172.35Z" fill="url(#paint2_linear_291_6)"/>
<defs>
<linearGradient id="paint0_linear_291_6" x1="93.6406" y1="182.55" x2="1431.53" y2="182.55" gradientUnits="userSpaceOnUse">
<stop stop-color="#C1272D"/>
<stop offset="0.99" stop-color="#FBB03B"/>
</linearGradient>
<linearGradient id="paint1_linear_291_6" x1="82.7812" y1="25.1102" x2="203.561" y2="25.1102" gradientUnits="userSpaceOnUse">
<stop stop-color="#C1272D"/>
<stop offset="0.99" stop-color="#FBB03B"/>
</linearGradient>
<linearGradient id="paint2_linear_291_6" x1="0" y1="130.96" x2="172.35" y2="130.96" gradientUnits="userSpaceOnUse">
<stop stop-color="#C1272D"/>
<stop offset="0.99" stop-color="#FBB03B"/>
</linearGradient>
</defs>
</svg>
