<svg width="596" height="596" viewBox="0 0 596 596" fill="none" xmlns="http://www.w3.org/2000/svg">
<path d="M294.03 595C131.31 593.14 0 460.65 0 297.52C0 287.52 0.49 277.63 1.47 267.89C3.79 269.31 6.12 270.68 8.49 272.03C68.06 305.85 124.06 342.82 171.27 385.39C223.03 432.03 260.26 492.38 284.11 557.91C287.21 571.23 290.59 583.7 294.03 595.01V595Z" fill="#6EB7FF"/>
<path d="M595.049 297.52C595.049 460.66 463.739 593.14 301.039 595.01C304.469 583.7 307.849 571.23 310.949 557.91C334.799 492.38 372.019 432.03 423.789 385.39C470.999 342.82 526.999 305.84 586.569 272.03C588.949 270.69 591.279 269.31 593.589 267.89C594.559 277.63 595.059 287.52 595.059 297.52H595.049Z" fill="#6EB7FF"/>
<path d="M593.579 267.88C591.259 269.3 588.929 270.67 586.559 272.02C526.989 305.84 470.989 342.81 423.779 385.38C372.019 432.02 334.789 492.37 310.939 557.9C307.839 571.22 304.459 583.69 301.029 595C299.869 595.03 298.699 595.03 297.529 595.03C296.359 595.03 295.179 595.03 294.029 595C290.589 583.69 287.209 571.22 284.109 557.9C260.259 492.37 223.039 432.02 171.269 385.38C124.059 342.81 68.0587 305.83 8.48875 272.02C6.10875 270.68 3.77875 269.3 1.46875 267.88C6.52875 216.55 24.6687 169.03 52.4787 128.73C106.149 50.96 195.889 0 297.529 0C399.169 0 488.909 50.96 542.569 128.73C570.379 169.03 588.519 216.55 593.579 267.88Z" fill="#1D70E6"/>
<path d="M408.659 287.96C408.309 288.16 407.959 288.36 407.619 288.56C385.099 301.39 363.949 315.43 346.069 331.54C326.169 349.48 311.849 372.68 302.689 397.88C302.489 398.74 302.289 399.58 302.079 400.42C300.839 405.5 299.489 410.22 298.159 414.47C297.569 414.44 298.189 414.47 297.599 414.44C297.579 414.35 297.549 414.27 297.529 414.18C297.499 414.27 297.479 414.35 297.449 414.44C296.869 414.47 297.489 414.44 296.899 414.47C295.519 410.08 294.129 405.19 292.859 399.92C292.689 399.25 292.529 398.57 292.369 397.88C283.199 372.68 268.889 349.48 248.989 331.54C231.069 315.4 209.869 301.34 187.309 288.48C187.009 288.31 186.699 288.13 186.399 287.96C150.059 267.34 132.429 227.28 143.879 189.35C144.049 188.76 144.229 188.18 144.409 187.61C155.469 198.59 169.499 210.29 187.309 222.46C202.529 232.86 220.529 243.6 241.779 254.52C241.879 254.56 241.959 254.61 242.059 254.66C245.539 256.81 249.119 258.96 252.929 261.06C271.599 271.38 284.379 284.35 292.859 298.55C294.589 301.45 296.139 304.39 297.529 307.38C298.889 304.46 300.399 301.58 302.079 298.75C310.559 284.47 323.369 271.43 342.129 261.06C345.939 258.96 349.519 256.81 352.999 254.66C353.099 254.61 353.179 254.56 353.279 254.52C374.469 243.63 392.429 232.92 407.619 222.55C425.489 210.35 439.559 198.62 450.639 187.61C450.819 188.18 450.999 188.76 451.179 189.35C462.629 227.28 444.999 267.34 408.659 287.96Z" fill="white"/>
<path d="M359.371 159.346C373.157 126.063 357.352 87.9051 324.068 74.1187C290.785 60.3323 252.628 76.1377 238.841 109.421C225.055 142.704 240.86 180.862 274.144 194.648C307.427 208.434 345.584 192.629 359.371 159.346Z" fill="white"/>
<path d="M473.952 489.73H451.802L442.242 441.06H464.392L473.952 489.73Z" fill="white"/>
<path d="M435.251 489.73H413.341L392.461 460.92H414.361L435.251 489.73Z" fill="white"/>
<path d="M473.002 489.73H451.802L442.242 441.06H463.442L473.002 489.73Z" fill="white"/>
<path d="M434.301 489.73H413.341L392.461 460.92H413.411L434.301 489.73Z" fill="white"/>
<path d="M435.493 489.73H414.633L443.533 441.06H464.393L435.493 489.73Z" fill="white"/>
<path d="M376.402 489.73H397.272L414.382 460.92H393.512L376.402 489.73Z" fill="white"/>
<path d="M512.752 440.1L511.952 407.72H510.662L483.192 422.62L490.482 426.93L453.082 489.73H473.952L505.912 436.06L511.462 440.1H512.752Z" fill="white"/>
<path d="M434.21 489.73H413.34L442.24 441.06H463.11L434.21 489.73Z" fill="white"/>
<path d="M375.121 489.73H395.991L413.101 460.92H392.231L375.121 489.73Z" fill="white"/>
<path d="M511.461 440.1L510.661 407.72L481.901 422.62L489.191 426.93L451.801 489.73H472.671L504.621 436.06L511.461 440.1Z" fill="white"/>
<path d="M121.102 489.73H143.252L152.812 441.06H130.662L121.102 489.73Z" fill="white"/>
<path d="M159.801 489.73H181.711L202.591 460.92H180.691L159.801 489.73Z" fill="white"/>
<path d="M122.051 489.73H143.251L152.811 441.06H131.611L122.051 489.73Z" fill="white"/>
<path d="M160.75 489.73H181.71L202.59 460.92H181.64L160.75 489.73Z" fill="white"/>
<path d="M159.56 489.73H180.42L151.52 441.06H130.66L159.56 489.73Z" fill="white"/>
<path d="M218.652 489.73H197.782L180.672 460.92H201.542L218.652 489.73Z" fill="white"/>
<path d="M82.3008 440.1L83.1008 407.72H84.3908L111.861 422.62L104.571 426.93L141.971 489.73H121.101L89.1408 436.06L83.5908 440.1H82.3008Z" fill="white"/>
<path d="M160.841 489.73H181.711L152.811 441.06H131.941L160.841 489.73Z" fill="white"/>
<path d="M219.929 489.73H199.059L181.949 460.92H202.819L219.929 489.73Z" fill="white"/>
<path d="M83.5898 440.1L84.3898 407.72L113.15 422.62L105.86 426.93L143.25 489.73H122.38L90.4298 436.06L83.5898 440.1Z" fill="white"/>
<path d="M292.848 261.11L213.358 208.15C212.278 207.43 210.828 208.21 210.828 209.5V224.47C210.828 225.12 211.208 225.7 211.808 225.96L292.838 261.11H292.848Z" fill="white"/>
<path d="M292.851 247.73L234.871 192.37C233.841 191.38 232.121 192.11 232.121 193.54V206.98C232.121 207.53 232.401 208.04 232.851 208.34L292.841 247.73H292.851Z" fill="white"/>
<path d="M302.07 261.11L381.56 208.15C382.64 207.43 384.09 208.21 384.09 209.5V224.47C384.09 225.12 383.7 225.7 383.11 225.96L302.08 261.11H302.07Z" fill="white"/>
<path d="M302.07 247.73L360.05 192.37C361.08 191.38 362.8 192.11 362.8 193.54V206.98C362.8 207.53 362.52 208.04 362.07 208.34L302.08 247.73H302.07Z" fill="white"/>
</svg>
