<svg width="458" height="409" viewBox="0 0 458 409" fill="none" xmlns="http://www.w3.org/2000/svg">
<path d="M177.25 0H280.5C377.99 0 457.75 79.76 457.75 177.25C457.75 274.74 377.98 354.5 280.5 354.5H217.46L110.88 408.21V341.49C46.04 315.08 0 251.3 0 177.25C0 79.76 79.77 0 177.25 0Z" fill="#00833D"/>
<mask id="mask0_305_352" style="mask-type:luminance" maskUnits="userSpaceOnUse" x="89" y="70" width="290" height="235">
<path d="M139.572 73.7499C140.262 73.7499 142.242 73.2599 142.892 73.0999C143.542 72.9399 144.232 72.8999 145.042 73.4199C145.852 73.9399 145.532 74.1499 146.782 74.2299C148.032 74.3099 149.172 74.5899 150.792 74.5899C152.412 74.5899 154.442 74.3899 155.122 74.3099C155.812 74.2299 156.662 74.1499 157.152 73.6199C157.642 73.0899 159.502 71.0299 160.112 70.9899C160.722 70.9499 163.432 71.4799 164.362 71.7599C165.292 72.0399 168.092 72.9299 169.422 73.4999C170.752 74.0699 173.192 75.3599 173.882 75.6099C174.572 75.8499 176.432 76.2199 176.672 76.1399C176.912 76.0599 177.892 75.5299 178.172 75.6899C178.452 75.8499 179.512 76.1999 179.632 76.1499C179.752 76.0999 179.832 75.3999 180.762 76.1499C181.692 76.8999 184.162 78.9699 185.052 80.1799C185.942 81.3999 188.332 84.2299 189.022 84.8799C189.712 85.5299 190.882 87.2699 191.372 88.1199C191.862 88.9699 192.992 90.9599 193.562 91.6799C194.132 92.4099 194.692 92.6899 195.542 92.5299C196.392 92.3699 197.002 91.8399 198.252 91.6399C199.512 91.4399 200.762 91.3199 201.172 90.7099C201.582 90.0999 202.062 89.1699 202.262 89.0899C202.462 89.0099 204.162 89.8199 204.932 89.7799C205.702 89.7399 206.962 89.7799 208.372 88.9699C209.792 88.1599 212.222 86.3399 212.992 86.0099C213.762 85.6899 215.992 84.6299 216.272 84.5899C216.552 84.5499 222.262 85.2399 223.242 85.5199C224.212 85.7999 228.142 89.2099 228.872 89.8899C229.602 90.5799 229.682 90.8999 230.652 90.9799C231.622 91.0599 232.722 90.6599 232.962 91.2999C233.202 91.9499 239.282 94.9499 241.022 95.6699C242.762 96.3999 244.102 96.1999 245.642 96.3599C247.182 96.5199 260.022 97.3299 260.022 97.3299C260.022 97.3299 268.322 88.8999 268.892 88.5399C269.462 88.1799 271.732 85.9899 273.182 85.9899C274.632 85.9899 277.922 85.5399 278.892 85.4999C279.862 85.4599 282.412 84.1599 283.062 84.1399C283.712 84.1199 301.132 83.3499 302.712 83.6299C304.292 83.9099 313.972 85.9399 314.132 86.1399C314.292 86.3399 315.632 88.6899 316.522 88.8899C317.412 89.0899 319.602 88.4399 320.692 88.4399C321.782 88.4399 323.852 89.1299 324.422 89.2899C324.992 89.4499 326.692 89.4099 327.132 89.2099C327.582 89.0099 328.472 86.7799 329.802 86.0099C331.142 85.2399 331.062 84.0299 332.192 83.4599C333.322 82.8899 336.282 80.8299 336.812 80.4199C337.342 80.0099 339.652 79.1199 340.542 78.7599C341.432 78.3999 343.252 78.2699 343.422 78.3099C343.592 78.3499 343.782 78.1099 344.392 78.5099C345.002 78.9199 344.672 79.3199 345.562 79.1999C346.452 79.0799 346.942 78.9599 347.062 79.3199C347.182 79.6799 346.862 80.6999 347.062 81.7099C347.262 82.7199 347.382 83.2099 347.832 83.5699C348.282 83.9299 348.962 84.4199 348.962 85.0299C348.962 85.6399 349.042 86.4899 349.322 86.5699C349.602 86.6499 350.372 86.0399 350.622 86.7299C350.862 87.4199 350.942 88.4699 351.672 88.6699C352.402 88.8699 353.572 88.1799 353.982 88.8299C354.392 89.4799 354.022 90.2899 354.632 90.2099C355.242 90.1299 356.332 88.7499 356.742 89.2399C357.152 89.7299 357.552 90.8199 357.962 90.8199C358.372 90.8199 360.032 89.1599 360.432 88.9199C360.842 88.6799 361.242 88.0699 361.282 88.7199C361.322 89.3699 359.902 90.6999 359.622 91.2699C359.342 91.8399 358.812 92.1599 358.892 92.8099C358.972 93.4599 359.172 94.0299 359.742 93.5399C360.312 93.0499 361.282 92.8099 361.282 92.8099C361.282 92.8099 360.272 94.2699 360.192 94.8399C360.112 95.4099 360.472 96.1399 360.552 96.5799C360.632 97.0299 360.312 97.2299 360.312 97.8399C360.312 98.4499 360.632 98.9299 360.632 99.3399C360.632 99.7499 360.352 99.9099 360.552 100.35C360.752 100.8 360.672 100.84 361.282 101.12C361.892 101.4 362.822 101.73 362.982 101.97C363.142 102.21 363.752 103.02 364.072 103.79C364.392 104.56 364.842 105.21 365.372 104.68C365.902 104.15 366.752 103.26 366.952 103.71C367.152 104.16 367.072 105.05 367.312 105.17C367.552 105.29 368.282 104.85 368.322 105.17C368.362 105.49 368.402 107.84 368.852 108.29C369.302 108.74 373.752 109.02 374.802 109.79C375.852 110.56 376.912 112.46 377.392 112.91C377.882 113.36 378.692 113.23 378.692 113.92C378.692 114.61 378.202 114.97 378.162 115.7C378.122 116.43 378.812 117.44 378.692 117.85C378.572 118.26 377.922 118.58 377.922 119.31C377.922 120.04 378.162 121.34 378.042 121.82C377.922 122.3 377.272 122.99 377.112 123.16C376.952 123.33 376.662 123.61 377.392 124.29C378.122 124.98 378.522 127.45 378.522 128.02C378.522 128.59 369.732 134.46 369.282 134.62C368.832 134.78 363.852 133.61 363.732 133.73C363.612 133.85 362.112 136.85 361.502 137.46C360.892 138.07 359.762 138.31 359.642 139.28C359.522 140.25 357.612 145.15 357.372 145.52C357.132 145.88 354.332 148.52 354.132 148.88C353.932 149.24 353.602 149.04 353.682 149.97C353.762 150.9 354.212 151.06 353.962 151.91C353.722 152.76 352.342 155.23 352.302 155.96C352.262 156.69 352.712 157.66 352.752 158.51C352.792 159.36 348.292 162.32 348.132 162.88C347.972 163.45 347.812 163.89 347.562 164.66C347.322 165.43 346.142 166.04 346.392 166.48C346.632 166.93 348.252 168.79 348.252 169.32C348.252 169.85 346.792 174.18 345.942 174.5C345.092 174.82 341.732 175.43 341.442 175.76C341.162 176.08 338.522 178.11 338.402 178.84C338.282 179.57 338.852 180.54 338.932 181.15C339.012 181.76 338.572 182.77 338.242 183.62C337.922 184.47 337.112 192.53 336.942 193.06C336.782 193.59 335.642 193.26 335.442 193.71C335.242 194.16 335.322 195.05 334.952 195.29C334.592 195.53 330.212 196.26 330.052 196.34C329.892 196.42 329.442 196.99 328.962 197.68C328.472 198.37 327.952 199.14 327.102 199.71C326.252 200.28 325.032 200.8 324.832 201.57C324.632 202.34 324.142 205.66 323.982 206.15C323.822 206.64 322.442 207.69 322.122 208.5C321.802 209.31 322.242 210.81 321.632 211.74C321.022 212.67 318.072 217.57 318.072 217.57C318.072 217.57 318.482 221.38 318.392 222.11C318.312 222.84 317.382 223.53 316.242 225.03C315.112 226.53 314.502 227.46 314.542 227.87C314.582 228.28 314.702 229.13 314.182 229.53C313.652 229.94 313.172 230.02 313.332 230.58C313.492 231.14 314.142 232.4 313.942 232.65C313.742 232.89 310.582 234.47 309.892 235.32C309.202 236.17 308.552 236.66 307.782 237.63C307.012 238.6 306.522 238.85 306.692 239.61C306.852 240.38 306.812 241.27 306.892 242.2C306.972 243.13 307.212 243.7 306.652 244.02C306.082 244.34 303.612 245.07 303.452 245.48C303.292 245.89 303.862 246.57 303.132 247.06C302.402 247.55 301.752 247.91 301.312 247.71C300.862 247.51 300.092 246.78 299.452 246.9C298.802 247.02 295.762 247.71 295.642 247.26C295.522 246.81 294.832 243.82 294.672 243.74C294.512 243.66 291.922 243.13 291.592 242.81C291.272 242.49 288.842 239.81 288.842 239.81C288.842 239.81 289.042 237.42 288.882 237.26C288.722 237.1 285.602 235.76 285.152 235.15C284.702 234.54 283.412 231.87 283.042 231.95C282.682 232.03 281.952 237.01 281.382 237.62C280.812 238.23 275.062 238.88 274.942 238.47C274.822 238.06 274.702 236.69 274.332 236.08C273.972 235.47 273.482 234.78 273.202 234.86C272.922 234.94 266.842 240.45 266.312 240.61C265.782 240.77 264.202 240.81 264.202 240.81C264.202 240.81 263.632 241.58 263.152 243.04C262.662 244.5 262.022 247.05 261.732 247.46C261.452 247.87 260.472 247.1 259.912 247.42C259.342 247.74 258.902 248.55 258.332 248.76C257.762 248.96 256.392 248.72 256.222 248.76C256.062 248.8 255.252 249.41 255.172 250.1C255.092 250.79 254.602 251.15 254.602 251.15L252.742 251.51C252.742 251.51 252.012 251.59 251.892 252.44C251.772 253.29 251.692 254.22 251.692 254.22L240.232 264.31C240.232 264.31 241.202 266.46 241.122 267.15C241.042 267.84 240.312 268.2 240.512 268.65C240.712 269.1 241.892 270.27 241.932 270.59C241.972 270.91 241.442 272.66 241.162 273.26C240.882 273.87 239.942 275.08 239.822 276.82C239.702 278.56 239.862 280.18 239.582 281.03C239.302 281.88 237.642 283.7 236.832 284.72C236.022 285.73 235.172 286.91 234.932 287.47C234.692 288.04 234.852 287.79 234.522 288.81C234.202 289.82 234.402 289.66 233.792 290.39C233.182 291.12 234.112 291.16 233.182 291.12C232.252 291.08 232.132 291.24 231.962 291.4C231.802 291.56 231.962 291.52 231.802 292.17C231.642 292.82 231.642 293.39 231.192 293.43C230.742 293.47 230.142 293.43 230.142 293.43L230.462 292.42C230.462 292.42 230.422 291.81 229.892 291.81C229.362 291.81 229.042 292.01 228.672 291.61C228.312 291.2 227.702 290.6 228.022 290.39C228.342 290.19 228.632 289.86 228.512 289.86C228.392 289.86 227.702 290.27 227.502 289.74C227.302 289.21 226.202 287.71 226.452 287.51C226.692 287.31 227.062 286.82 226.812 286.82C226.562 286.82 225.762 287.14 225.512 287.1C225.262 287.06 222.722 285.44 222.552 285.52C222.392 285.6 222.312 285.84 222.872 286.29C223.442 286.74 224.732 288.15 224.572 288.44C224.412 288.72 224.252 289.01 223.962 288.56C223.682 288.11 223.392 287.51 223.112 287.51C222.832 287.51 221.852 287.59 221.852 287.31C221.852 287.03 221.652 283.99 221.652 283.58C221.652 283.17 221.242 282.81 221.242 282.81C221.242 282.81 220.752 285.04 220.752 285.73C220.752 286.42 220.472 286.66 221.282 287.31C222.092 287.96 223.792 289.78 224.282 290.15C224.772 290.51 224.892 290.23 225.052 290.6C225.212 290.96 225.372 292.02 225.372 292.38C225.372 292.74 225.652 293.47 225.492 293.45C225.332 293.43 224.272 293.31 224.442 293.68C224.602 294.04 224.802 294.25 224.802 294.25C224.802 294.25 225.042 294.74 225.042 295.14C225.042 295.54 225.082 295.71 225.282 295.95C225.482 296.19 225.602 296.44 225.362 296.96C225.122 297.49 223.622 297.61 223.622 297.61H218.642C218.642 297.61 218.192 297 217.752 297.33C217.302 297.65 217.912 297.69 216.492 297.94C215.072 298.18 211.222 298.79 210.292 298.75C209.362 298.71 208.102 297.66 208.062 297.29C208.022 296.93 207.412 295.22 207.532 294.94C207.652 294.66 207.772 294.01 207.852 293.72C207.932 293.44 207.732 292.5 207.732 292.5C207.732 292.5 207.002 294.12 206.842 294.48C206.682 294.84 207.042 295.25 207.042 295.9C207.042 296.55 207.572 296.83 206.802 296.99C206.032 297.15 205.952 297.27 205.462 296.95C204.972 296.63 204.732 296.1 204.692 296.34C204.652 296.58 204.372 296.91 204.612 297.23C204.852 297.55 205.142 297.59 205.102 297.76C205.062 297.93 204.532 298 204.412 298.04C204.292 298.08 203.962 297.68 203.882 296.91C203.802 296.14 203.642 295.65 203.642 295.65C203.642 295.65 202.102 294.68 202.182 295.24C202.262 295.8 202.712 296.17 202.952 296.58C203.192 296.99 203.362 297.35 203.232 297.63C203.112 297.91 203.272 298.52 202.582 298.16C201.892 297.8 202.132 297.8 201.892 297.8C201.652 297.8 201.322 298.25 201.162 297.8C201.002 297.35 200.592 296.87 200.272 296.63C199.952 296.39 199.382 295.98 199.382 295.98C199.382 295.98 197.562 293.87 197.352 293.79C197.142 293.71 196.302 293.55 196.422 293.63C196.542 293.71 197.352 294.44 197.552 294.85C197.752 295.26 197.962 295.5 198.042 295.94C198.122 296.38 198.402 297.11 198.452 297.6C198.502 298.09 198.042 298.74 198.042 298.74L197.272 298.54C197.272 298.54 197.762 298.99 197.152 298.99C196.542 298.99 196.062 298.5 196.062 298.5C196.062 298.5 196.182 298.26 196.262 297.89C196.342 297.53 196.622 297.12 196.102 296.8C195.572 296.48 194.802 296.44 194.722 296.03C194.642 295.62 194.562 295.02 194.362 294.81C194.162 294.61 193.792 294.24 193.592 294.61C193.392 294.98 192.822 294.93 192.822 294.93C192.822 294.93 192.582 294.89 192.542 295.01C192.502 295.13 192.262 295.58 192.262 295.9C192.262 296.22 192.262 296.75 192.342 296.95C192.422 297.15 192.662 297.36 193.072 297.64C193.482 297.92 194.532 299.22 194.732 299.58C194.932 299.94 195.052 301.24 194.732 301.36C194.412 301.48 194.042 301.56 193.842 301.12C193.642 300.67 193.272 300.43 193.272 300.15C193.272 299.87 193.232 299.5 192.952 299.5C192.672 299.5 192.422 299.14 192.422 299.14C192.422 299.14 192.462 298.49 191.892 298.65C191.322 298.81 190.552 298.89 190.432 298.69C190.312 298.49 190.392 297.19 190.392 297.19C190.392 297.19 190.842 296.78 190.752 296.42C190.662 296.06 190.342 295.45 190.302 295.33C190.262 295.21 189.852 294.97 189.942 294.64C190.022 294.32 190.142 293.95 189.902 293.83C189.662 293.71 189.332 293.3 189.212 292.94C189.092 292.58 188.852 291.64 188.852 291.64L188.732 290.3L188.082 290.22C188.082 290.22 187.672 290.1 188.162 291.11C188.652 292.12 188.772 293.42 188.972 293.99C189.172 294.56 189.422 294.84 189.462 295.61C189.502 296.38 189.382 296.06 189.382 296.95C189.382 297.84 189.342 298.33 189.702 298.85C190.062 299.38 190.272 299.5 190.512 300.31C190.752 301.12 190.962 301.65 190.962 301.65C190.962 301.65 189.872 301.57 189.422 301.65C188.972 301.73 188.372 302.1 188.372 301.65C188.372 301.2 188.252 300.11 188.252 300.11C188.252 300.11 187.932 299.18 188.052 298.37C188.172 297.56 188.132 296.59 188.132 296.59C188.132 296.59 188.052 295.54 187.972 295.66C187.892 295.78 187.322 296.67 187.282 297.04C187.242 297.4 187.202 298.42 187.242 298.7C187.282 298.98 187.242 299.43 186.922 298.78C186.602 298.13 186.352 297.77 186.112 297.56C185.872 297.36 185.382 297.11 185.382 296.55C185.382 295.99 185.382 294.85 185.142 294.81C184.902 294.77 184.692 296.15 184.782 296.75C184.862 297.36 185.872 298.45 186.202 298.82C186.522 299.18 187.092 300.44 187.172 300.93C187.252 301.42 187.292 302.19 186.932 302.43C186.572 302.67 186.042 303.12 185.802 302.71C185.562 302.3 185.032 302.39 185.152 301.21C185.272 300.04 184.062 296.92 183.932 296.59C183.812 296.27 183.282 296.87 183.442 297.36C183.602 297.85 184.372 300.11 184.412 300.88C184.452 301.65 184.532 302.38 184.292 302.54C184.052 302.7 181.822 303.07 181.822 303.07L181.462 302.46L180.412 302.22C180.412 302.22 179.762 301.77 179.152 301.57C178.542 301.37 178.062 300.44 177.812 300.31C177.572 300.19 177.202 300.23 177.002 300.31C176.802 300.39 176.392 299.99 176.392 299.99C176.392 299.99 176.552 300.68 176.112 300.76C175.672 300.84 175.062 300.52 175.142 300.88C175.222 301.24 175.342 302.22 175.222 302.46C175.102 302.7 174.652 302.95 174.652 303.07C174.652 303.19 174.932 303.76 174.812 303.88C174.692 304 173.072 304.29 172.872 304.08C172.672 303.88 172.102 303.39 172.102 303.39C172.102 303.39 171.372 304.12 171.172 303.8C170.972 303.48 170.282 302.75 170.282 302.75L169.632 301.53L169.062 302.22L168.412 302.42L166.752 301.49C166.752 301.49 166.712 300.72 166.472 300.72C166.232 300.72 165.982 300.8 165.862 300.72C165.742 300.64 163.832 299.46 163.752 299.34C163.672 299.22 163.062 298.73 163.712 298.49C164.362 298.25 165.372 297.8 165.052 297.56C164.732 297.32 164.692 297.56 163.922 297.68C163.152 297.8 161.492 297.19 161.132 296.67C160.772 296.14 158.902 294.08 158.902 293.79C158.902 293.5 158.782 293.06 159.182 293.43C159.592 293.79 160.032 293.79 159.992 293.35C159.952 292.91 159.792 293.07 159.342 292.54C158.892 292.01 156.872 289.75 156.872 289.75L158.332 290.8C158.332 290.8 159.832 291.12 159.912 291C159.992 290.88 160.522 290.84 159.952 290.55C159.382 290.27 159.302 290.06 159.302 290.06C159.302 290.06 159.582 287.99 159.342 288.03C159.102 288.07 158.932 288.76 158.692 289.2C158.452 289.65 158.162 290.17 157.922 289.69C157.682 289.2 156.832 287.99 156.832 287.99L155.092 283.7C155.092 283.7 156.752 283.25 157.122 283.25C157.492 283.25 157.572 282.97 157.812 283.66C158.052 284.35 157.892 285.08 158.262 285.32C158.622 285.56 159.072 285.52 159.152 285.36C159.232 285.2 158.832 284.59 158.832 284.59C158.832 284.59 158.062 283.42 158.552 283.17C159.042 282.93 159.772 282.56 159.402 282.56C159.032 282.56 158.312 282.6 158.182 282.48C158.062 282.36 157.652 280.82 157.372 281.18C157.092 281.54 157.412 282.11 157.012 282.44C156.602 282.76 154.862 282.89 154.862 282.89L154.172 282.24L152.592 278.19L154.372 277.66L155.502 277.86C155.502 277.86 156.152 278.47 156.392 278.31C156.632 278.15 158.052 277.82 158.052 277.82L159.792 277.5L160.722 277.58L161.082 277.38L159.912 276.85C159.912 276.85 158.492 275.92 158.612 275.68C158.732 275.44 159.222 274.95 159.222 274.95L161.612 274.26L161.492 273.65L159.182 274.01C159.182 274.01 157.922 273.97 157.882 274.74C157.842 275.51 156.832 276.44 156.832 276.44L155.782 276.64L155.172 275.26L155.092 276.6C155.092 276.6 152.302 275.99 151.812 275.51C151.322 275.02 150.392 273.57 150.392 273.57L151.362 272.84L152.742 273.08L153.432 273.53C153.432 273.53 153.432 273 154.042 273.08C154.652 273.16 154.852 272.92 154.852 272.92L156.882 271.83L157.972 271.55C157.972 271.55 157.002 270.82 156.552 270.82C156.102 270.82 155.742 270.66 155.502 271.1C155.262 271.55 156.032 271.67 155.052 271.83C154.082 271.99 153.022 272.32 153.392 271.87C153.752 271.42 153.472 270.86 153.802 270.65C154.122 270.45 154.532 270.45 155.062 270.24C155.592 270.03 156.682 269.23 156.522 269.23C156.362 269.23 154.332 269.19 154.332 269.19C154.332 269.19 154.292 266.92 154.012 267.04C153.732 267.16 153.652 268.58 153.602 268.9C153.562 269.22 152.872 270.97 152.472 271.33C152.062 271.69 151.462 271.94 150.932 272.06C150.402 272.18 149.842 272.55 149.712 272.42C149.582 272.29 147.732 269.5 147.732 269.5C147.732 269.5 147.852 268.45 148.262 268.08C148.672 267.72 148.622 267.51 149.562 267.23C150.492 266.95 151.302 266.54 151.632 266.26C151.952 265.98 154.832 263.55 155.402 263.47C155.972 263.39 156.292 263.43 156.292 263.43C156.292 263.43 156.782 263.11 157.062 263.11C157.342 263.11 158.112 263.31 158.322 263.72C158.522 264.13 159.132 264.25 159.132 264.25C159.132 264.25 160.062 263.68 160.302 263.8C160.542 263.92 160.662 264 160.992 263.96C161.312 263.92 161.922 263.8 161.762 263.68C161.602 263.56 160.952 262.83 160.462 262.87C159.972 262.91 159.452 263.19 159.202 263.28C158.962 263.36 159.202 262.71 158.272 262.67C157.342 262.63 156.452 262.51 156.042 262.55C155.632 262.59 154.262 263.36 153.372 263.93C152.482 264.5 151.182 265.91 150.622 266.16C150.052 266.4 149.322 266.61 149.002 266.57C148.682 266.53 148.392 266.08 148.112 266.65C147.832 267.22 147.382 267.99 146.982 267.7C146.572 267.42 145.762 266.24 145.762 266.24L144.222 262.55C144.222 262.55 140.452 258.34 140.332 258.26C140.212 258.18 139.282 258.14 138.792 257.73C138.302 257.32 137.942 256.51 137.942 256.51L136.972 256.35L132.152 253.11L127.292 253.07C127.292 253.07 125.222 252.14 122.922 251.9C120.612 251.66 110.812 251.78 110.812 251.78L107.652 252.55C107.652 252.55 107.042 253.56 106.642 253.6C106.232 253.64 93.7217 253.24 92.7517 253.19C91.7817 253.15 89.7917 252.7 89.7117 252.78C89.6317 252.86 89.1017 251.85 89.7117 251.24C90.3217 250.63 90.3617 249.86 90.4017 249.3C90.4417 248.74 90.8117 248.08 90.8117 248.08L90.3217 246.78L90.9717 245.2L91.9417 243.74L90.8917 242.65L90.9317 241.23C90.9317 241.23 91.2517 240.5 90.8517 240.01C90.4417 239.52 90.0417 239.04 90.1617 238.67C90.2817 238.31 89.3117 238.47 90.2017 237.7C91.0917 236.93 90.3217 236 90.5217 235.51C90.7217 235.02 91.1317 234.25 91.1317 234.25V232.91L90.6417 230.64L90.4817 228.9L90.8417 226.79C90.8417 226.79 91.9317 226.67 91.8917 226.1C91.8517 225.53 91.4017 225.57 91.2017 224.36C91.0017 223.14 90.4317 215.98 90.4317 215.98C90.4317 215.98 89.6617 214.72 90.0217 213.71C90.3817 212.7 90.6317 212.09 90.4717 211.4C90.3117 210.71 89.9817 210.83 90.5117 209.66C91.0417 208.49 91.1217 207.8 91.1217 207.8C91.1217 207.8 91.0817 207.23 90.5517 206.22C90.0217 205.21 89.8217 204.36 89.8217 204.36C89.8217 204.36 90.4317 203.23 90.4717 202.82C90.5117 202.41 90.2317 201.97 90.5117 201.73C90.7917 201.49 90.8717 201.45 91.1217 200.84C91.3617 200.23 91.6517 199.83 91.6517 198.73C91.6517 197.63 90.9217 195.73 90.9217 195.73L91.2417 194.51L90.5917 192.85L91.1617 191.92C91.1617 191.92 91.6117 190.3 91.8917 189.53C92.1717 188.76 92.2117 187.5 92.2117 187.5L92.5717 186.29L93.8717 186.09C93.8717 186.09 94.2817 185.24 95.2117 185.48C96.1417 185.72 96.5517 185.72 96.5517 185.72L97.9317 185.6C97.9317 185.6 98.4217 185.64 99.1917 185.4C99.9617 185.16 100.242 183.7 100.242 183.7L100.732 182.28L101.182 181.27C101.182 181.27 101.592 180.7 101.542 180.3C101.502 179.89 101.462 179.29 101.342 178.64C101.222 177.99 101.262 176.86 101.262 176.86L102.392 175.24L103.652 173.7L104.662 172.32C104.662 172.32 105.192 171.71 105.882 171.35C106.572 170.99 106.692 170.62 106.692 170.62C106.692 170.62 106.082 169.85 106.082 169.73C106.082 169.61 106.492 168.47 106.492 168.47C106.492 168.47 107.462 167.5 108.192 167.21C108.922 166.93 109.772 166.24 109.772 166.24L111.032 166.4L111.882 165.47L112.732 164.54L112.412 163.12C112.412 163.12 112.052 162.03 112.492 161.62C112.942 161.21 113.182 161.09 113.182 161.09C113.182 161.09 113.542 160.64 113.502 159.71C113.462 158.78 112.892 158.13 112.532 157.48C112.172 156.83 112.292 155.37 112.292 155.37L112.902 153.91L113.142 152.82C113.142 152.82 113.952 152.09 114.762 152.41C115.572 152.73 116.302 153.42 116.912 152.69C117.522 151.96 118.042 150.54 118.252 149.77C118.452 149 118.532 147.58 118.532 147.02C118.532 146.46 118.732 145.97 118.122 145.68C117.512 145.4 116.862 144.83 116.702 144.38C116.542 143.93 115.892 143.65 116.172 142.88C116.452 142.11 116.862 141.83 116.862 140.9C116.862 139.97 116.502 138.59 116.502 138.59C116.502 138.59 116.052 136.32 115.932 135.92C115.812 135.51 116.212 136 115.282 135.39C114.352 134.78 112.572 133 112.002 132.19C111.432 131.38 110.182 129.72 110.102 128.91C110.022 128.1 109.822 127.74 110.462 126.68C111.112 125.63 112.572 122.22 112.572 122.22C112.572 122.22 114.552 120.96 114.602 120.11C114.642 119.26 113.912 117.44 113.872 116.63C113.832 115.82 114.032 116.14 114.402 114.77C114.762 113.39 114.932 113.43 114.682 112.06C114.442 110.68 114.272 110.56 114.402 109.51C114.532 108.46 114.892 104.97 114.892 104.97L116.472 100.6C116.472 100.6 119.262 98.8599 121.052 97.5999C122.832 96.3399 124.252 94.5599 124.902 93.2699C125.552 91.9699 126.162 90.8799 126.282 90.1499C126.402 89.4199 126.282 89.0999 126.692 88.4499C127.102 87.7999 127.182 87.6799 127.342 86.6299C127.502 85.5799 126.812 81.6499 127.062 81.2399C127.302 80.8299 127.952 79.1699 128.562 78.9699C129.172 78.7699 131.232 78.3999 132.332 77.5899C133.422 76.7799 134.602 75.3199 135.212 74.7999C135.822 74.2699 137.522 73.2999 137.762 73.2999C138.002 73.2999 139.582 73.6199 139.582 73.6199L139.572 73.7499Z" fill="white"/>
</mask>
<g mask="url(#mask0_305_352)">
<path d="M88.1484 64.6401V188.5V310.86H185.618V188.5V64.6401H88.1484Z" fill="white"/>
<path d="M185.258 64.6401V188.5V310.86H282.718V188.5V64.6401H185.258Z" fill="white"/>
<path d="M282.359 64.6401V188.5V310.86H379.819V188.5V64.6401H282.359Z" fill="white"/>
</g>
</svg>
